<svg xmlns="http://www.w3.org/2000/svg" xmlns:xlink="http://www.w3.org/1999/xlink" width="359.691" height="253.413" viewBox="0 0 359.691 253.413">
  <defs>
    <clipPath id="clip-path">
      <rect id="Rectangle_5599" data-name="Rectangle 5599" width="359.691" height="253.413" fill="none"/>
    </clipPath>
    <clipPath id="clip-path-2">
      <rect id="Rectangle_5590" data-name="Rectangle 5590" width="143.875" height="14.414" fill="none"/>
    </clipPath>
    <clipPath id="clip-path-3">
      <rect id="Rectangle_5592" data-name="Rectangle 5592" width="5.053" height="78.481" fill="none"/>
    </clipPath>
  </defs>
  <g id="Group_15927" data-name="Group 15927" transform="translate(18116 -6159.086)">
    <g id="Group_15926" data-name="Group 15926" transform="translate(-18116 6159.086)">
      <g id="Group_15925" data-name="Group 15925" clip-path="url(#clip-path)">
        <path id="Path_61844" data-name="Path 61844" d="M331.04,206.13c-.021-.091-.047-.178-.067-.27-9.8-44.785-83.77-35.529-83.77-35.529-18.992,1.8-33.1,6.238-43.554,11.639a54.465,54.465,0,0,0-29.517,41.7c-1.241,10.271-6.327,25.656-22.7,31.215-31.894,10.826-20.7,35.556-17.572,44.217,2.723,7.544,18.108,16.469-4.3,35.988s2.345,52.945,2.345,52.945l199.135.3Z" transform="translate(-104.948 -148.057)" fill="#f2e4df"/>
        <path id="Path_61845" data-name="Path 61845" d="M2541.943,915.692v124.392l10.911.016c7.842.015,18.027-86.312-10.911-124.408" transform="translate(-2219.863 -799.668)" fill="#f2e4df"/>
        <path id="Path_61846" data-name="Path 61846" d="M1986.5,824.781c2.808-1.2,5.951-2.423,8.83-1.4a12.358,12.358,0,0,1,4.534,3.481c1.453,1.529,3,3.27,3.032,5.379a7.717,7.717,0,0,1-.5,2.512,14.548,14.548,0,0,1-2.187,4.48,12.9,12.9,0,0,1-6.835,4.127c-2.308.644-2.88.417-5.274.314-1.616-.07-4.177-2.638-5.226-3.869-1.667-1.956-1.522-10.434.237-12.571a9.228,9.228,0,0,1,1.871-1.624,15.087,15.087,0,0,1,1.486-.9l.029.071" transform="translate(-1730.609 -718.719)" fill="#13375b"/>
        <path id="Path_61847" data-name="Path 61847" d="M1765.039,1089.726c-.2-.593,2.678-1.062,2.834-1.66s-3.636-.659-3.77-1.186c-.247-.971,4.156-.19,4.071-.644s-4.586-1.483-4.1-2.26,4.555,1.554,4.681,1.026-3.976-1.827-3.9-2.985c.042-.619,6.728,3.11,7.506,2.776s-.824-3.248-.2-3.677,2.374,5.92,2.8,6.133,9.459,5.41,12.676,6.243c.4-1.077,3.225-6.786,3.574-7.805,1.8,1.292,3.9,1.58,5.758,2.759-1.363,3.381-6.034,11.7-6.977,12.123-2.871,1.285-13.923-7.947-16.13-9.528s-3.478-1.076-4.974-1.579-3.645.857-3.85.263" transform="translate(-1540.525 -944.115)" fill="#f48c7f"/>
        <path id="Path_61848" data-name="Path 61848" d="M2165.985,1218.332l-1.016-.853c3.723-4.358,5.77-12.662,5.92-24.015a118.771,118.771,0,0,0-.934-16.152l1.319-.184a120.328,120.328,0,0,1,.947,16.336,70.767,70.767,0,0,1-1.342,13.6c-1.041,4.894-2.687,8.685-4.894,11.268" transform="translate(-1890.654 -1027.979)" fill="#13375b"/>
        <path id="Path_61849" data-name="Path 61849" d="M2121.722,1056.478c.622,0,24.551-1.4,24.966,1.713s1.243,27.366-2.9,28.195-24.255-2.9-24.255-2.9Z" transform="translate(-1850.971 -922.343)" fill="#f47458"/>
        <path id="Path_61850" data-name="Path 61850" d="M1966.129,1066.9s6.11-4.425,7.958-7.594-1.258-1.106-4.43-1.94c-1.2-.316-.9-7.291-3.168-5.024-3.725,3.72-6.768,11.108-6.768,11.108Z" transform="translate(-1711.412 -918.61)" fill="#466eb6"/>
        <path id="Path_61851" data-name="Path 61851" d="M1995.45,1027.96s6.443-1.26,9.383,1.174-.63,24.075-.627,27.663,2.019,13.723,2.019,13.723-19.526,3.387-22.628-2c0,0-.882-20.519-.751-23.1s3.026-13.132,3.827-14.262,8.778-3.2,8.778-3.2" transform="translate(-1731.594 -897.426)" fill="#86b1f2"/>
        <path id="Path_61852" data-name="Path 61852" d="M2042.343,951.27s.034.191.1.516c.292,1.558,1.417,6.727,2.177,8.149.918,1.717-3.145,7.195-7.056,6.526-1.165-.2.984-5.033.881-5.545-.2-.98-.466-2.317-.74-3.688l-.459-2.295c-.418-2.094-.76-3.807-.76-3.807Z" transform="translate(-1778.447 -830.612)" fill="#f7a491"/>
        <path id="Path_61853" data-name="Path 61853" d="M2042.438,951.786c-.061-.325-.1-.516-.1-.516l-5.861-.145s.341,1.713.76,3.807l.456,2.282a5.515,5.515,0,0,0,2.8-1.387,7.306,7.306,0,0,0,2.12-3.118c-.072-.366-.133-.682-.177-.924" transform="translate(-1778.447 -830.612)" fill="#f47458"/>
        <path id="Path_61854" data-name="Path 61854" d="M2012.339,848.179a5.315,5.315,0,0,1,4.494,1.9c1.732,2.215,3.6,9.064-.7,12.788s-8.552-.491-9.182-4.961-.875-9.888,5.391-9.727" transform="translate(-1752.387 -740.696)" fill="#f7a491"/>
        <path id="Path_61855" data-name="Path 61855" d="M2049.166,842.031s3.691,6.513,6.331,6.814,2.987,3.762,2.987,3.762-.944-7.975-3.558-9.513a9.805,9.805,0,0,0-5.76-1.063" transform="translate(-1789.524 -735.28)" fill="#13375b"/>
        <path id="Path_61856" data-name="Path 61856" d="M1856.948,1085.234l18.049-4.347s6.383-8.484,12.531-15.8c1.892,1.78,2.98,4.552,4.884,6.313l-13.526,15.457a2.654,2.654,0,0,1-1.935.9l-19.216.457Z" transform="translate(-1621.661 -930.135)" fill="#f7a491"/>
        <path id="Path_61857" data-name="Path 61857" d="M2042.269,1050.68s8.582-7,10.43-10.169.478-8.479-2.694-9.312-13.522,13.513-13.522,13.513Z" transform="translate(-1778.447 -900.509)" fill="#466eb6"/>
        <path id="Path_61858" data-name="Path 61858" d="M2028.777,944.767l2.9-.319a1.268,1.268,0,0,1-1.218,1.276c-1.551.215-1.684-.958-1.684-.958" transform="translate(-1771.718 -824.78)" fill="#fff"/>
        <path id="Path_61859" data-name="Path 61859" d="M1756.084,1219.575c-.189-.289.286-.779.641-1.147a16.127,16.127,0,0,1,3.189-1.554,22.311,22.311,0,0,1,5.22.8,4.757,4.757,0,0,0,2.21.255c.349-.071.875-.166,1.283-.249l.835,3.08c-3.128-.039-6.4.192-6.7.184a11.756,11.756,0,0,1-3.061-1.141,2.829,2.829,0,0,0-1.752.222,6.967,6.967,0,0,1-2.393.713c-.265-.14.523-1.159.523-1.159" transform="translate(-1533.073 -1062.672)" fill="#f7a491"/>
        <path id="Path_61860" data-name="Path 61860" d="M2091.646,896.987c-.245,1.151.218,2.225,1.034,2.4s1.677-.619,1.921-1.77-.219-2.225-1.034-2.4-1.677.619-1.921,1.77" transform="translate(-1826.563 -781.767)" fill="#f7a491"/>
        <path id="Path_61861" data-name="Path 61861" d="M2074.229,798.3a3.564,3.564,0,0,1,.961-1.773,2.193,2.193,0,0,1,2.9.11,5.624,5.624,0,0,0,.858.92c.8.513,2.031.008,2.711.672a2.917,2.917,0,0,1,.465.761c.491.923,1.375,1.6,1.834,2.535a3.3,3.3,0,0,1,.178,2.423,4.083,4.083,0,0,1-1.744,2.139,7.8,7.8,0,0,1-2.624.98,2.887,2.887,0,0,1-1.36.039,3.208,3.208,0,0,1-1.245-.836,4.4,4.4,0,0,1-1.4-1.873,1.548,1.548,0,0,0-.342-.8c-.39-.337-.993-.109-1.357-.531-.267-.31-.2-.672-.215-1.06a12.177,12.177,0,0,1,.372-3.7" transform="translate(-1811.078 -695.173)" fill="#13375b"/>
        <path id="Path_61862" data-name="Path 61862" d="M1897.637,1725.629s5.927,7.043,5.967,7.656-.236,7.3-.941,7.914-2.776,1.047-2.11,1.737c.5.521,4.374.409,6.939.27.749-.041,1.688-5.962,1.984-6.832.431-1.264,1.479-4.111,1.087-4.992a7.449,7.449,0,0,0-2.39-2.135c-1.353-.866-6.528-8-6.528-8Z" transform="translate(-1657.194 -1503.151)" fill="#f48c7f"/>
        <path id="Path_61863" data-name="Path 61863" d="M1922.507,1784.071s-3.98,11.1-5.538,11.641c-.414.142-2.4.5-2.773,1.373a3.722,3.722,0,0,0,0,1.137h8.3s1.049-4.893,1.464-7.043c0,0,2.2-5.252,1.952-5.73s-3.4-1.379-3.4-1.379" transform="translate(-1671.612 -1558.018)" fill="#466eb6"/>
        <path id="Path_61864" data-name="Path 61864" d="M1476.043,1759.237s-4.84,6.753-4.414,8.889c.228,1.144,1.243,2.641.661,3.718a2.909,2.909,0,0,1-1.249,1.346l-15.1.241c-.822.013-.279-.51.384-.992a30.543,30.543,0,0,1,5.428-2.97c.226-.108,1.05-.626,1.346-.805a10.412,10.412,0,0,0,2.16-1.887c1.084-1.194,5.851-10.921,5.851-10.921Z" transform="translate(-1271.103 -1533.377)" fill="#f7a491"/>
        <path id="Path_61865" data-name="Path 61865" d="M1455.608,1854.624a13.81,13.81,0,0,0,8.6-.334c.426,1.193.99,2.691.691,3.554-.366,1.057-.888,1.3-1.349,1.308-3.647.095-13.36.224-16.141.26a.449.449,0,0,1-.353-.739c.69-.815,8.259-3.869,8.557-4.049" transform="translate(-1263.607 -1619.34)" fill="#466eb6"/>
        <path id="Path_61866" data-name="Path 61866" d="M1699.3,1362.725s5.993,6.779,7.522,7.853,16.2,27.844,16.2,27.844l-5.226,3.781s-13.111-16.2-19.268-24.866c-5.206-7.327-3.289-6.862-6.35-11.322a5.92,5.92,0,0,1,.919-7.767c.277-.248.577-.507.9-.776,4.532-3.743,35.6-7.956,35.6-7.956l19.869,1.928s-16.234,11.281-16.84,11.581-22.418,3.452-22.872,3.452-10.452-3.752-10.452-3.752" transform="translate(-1476.855 -1178.524)" fill="#eab054"/>
        <path id="Path_61867" data-name="Path 61867" d="M1633.454,1361.044s3.408,10.132-1.7,14.86-35.482,4.2-45.48,4.2c0,0-4.09,11.108-4.544,12.909s-20.3,25.068-20.3,25.068l-5.453-3.452s21.357-41.129,23.024-42.93,25.447-9.006,31.355-10.657,23.1,0,23.1,0" transform="translate(-1358.824 -1187.951)" fill="#f7cc7f"/>
        <path id="Path_61868" data-name="Path 61868" d="M1420.808,1060.78h29.91a1.95,1.95,0,0,1,1.8,1.2l9.21,22.259h16.49a.827.827,0,1,1,0,1.653h-46.931a3.278,3.278,0,0,1-2.989-1.917l-9.273-20.471a1.934,1.934,0,0,1,1.779-2.724" transform="translate(-1239.078 -926.373)" fill="#184655"/>
        <path id="Path_61869" data-name="Path 61869" d="M1561.073,1148.223a1.644,1.644,0,1,0,1.234-2.127,1.757,1.757,0,0,0-1.234,2.127" transform="translate(-1363.239 -1000.854)" fill="#fff"/>
        <path id="Path_61870" data-name="Path 61870" d="M853.973,1607.448h-2.279l4.858-42.227h2.279Z" transform="translate(-743.779 -1366.898)" fill="#355389"/>
        <path id="Path_61871" data-name="Path 61871" d="M1039.281,1607.448h2.279l-4.859-42.227h-2.279Z" transform="translate(-903.355 -1366.898)" fill="#355389"/>
        <path id="Path_61872" data-name="Path 61872" d="M549.225,1607.448h-2.279l4.858-42.227h2.279Z" transform="translate(-477.644 -1366.898)" fill="#355389"/>
        <path id="Path_61873" data-name="Path 61873" d="M734.532,1607.448h2.279l-4.858-42.227h-2.279Z" transform="translate(-637.22 -1366.898)" fill="#355389"/>
        <path id="Path_61874" data-name="Path 61874" d="M556.007,1164.6h-31.09a7.483,7.483,0,0,1-7.273-6.6l-5.138-50.184a5.848,5.848,0,0,1,5.922-6.6h31.09a7.483,7.483,0,0,1,7.273,6.6L561.93,1158a5.848,5.848,0,0,1-5.922,6.6" transform="translate(-447.538 -961.689)" fill="#eab054"/>
        <path id="Path_61875" data-name="Path 61875" d="M624.143,1164.6h-31.09a7.483,7.483,0,0,1-7.273-6.6l-5.138-50.184a5.848,5.848,0,0,1,5.922-6.6h31.09a7.483,7.483,0,0,1,7.273,6.6L630.066,1158a5.848,5.848,0,0,1-5.922,6.6" transform="translate(-507.04 -961.689)" fill="#f7cc7f"/>
        <path id="Path_61876" data-name="Path 61876" d="M606.158,1534.47H562.091a7.012,7.012,0,0,1-6.816-6.183,5.48,5.48,0,0,1,5.55-6.183h44.068a7.012,7.012,0,0,1,6.816,6.183,5.48,5.48,0,0,1-5.55,6.183" transform="translate(-484.889 -1329.244)" fill="#eab054"/>
        <path id="Path_61877" data-name="Path 61877" d="M692.984,1534.47H648.917a7.012,7.012,0,0,1-6.816-6.183,5.481,5.481,0,0,1,5.55-6.183h44.068a7.012,7.012,0,0,1,6.816,6.183,5.48,5.48,0,0,1-5.55,6.183" transform="translate(-560.714 -1329.244)" fill="#f7cc7f"/>
        <path id="Path_61878" data-name="Path 61878" d="M890.346,1159.691c.2-.593-2.678-1.062-2.834-1.66s3.636-.659,3.77-1.186c.247-.971-4.156-.19-4.071-.644s4.586-1.483,4.1-2.26-4.556,1.554-4.681,1.026,3.976-1.827,3.9-2.985c-.042-.619-6.728,3.11-7.506,2.776s.824-3.248.2-3.677-2.374,5.92-2.8,6.133-9.459,5.41-12.676,6.243c-.395-1.077-3.225-6.786-3.574-7.805-1.8,1.292-3.9,1.58-5.758,2.759,1.363,3.381,6.034,11.7,6.977,12.123,2.871,1.285,13.923-7.947,16.13-9.528s3.478-1.076,4.974-1.579,3.645.857,3.85.264" transform="translate(-749.648 -1005.215)" fill="#f48c7f"/>
        <path id="Path_61879" data-name="Path 61879" d="M659.486,913.879a19.522,19.522,0,0,0-1.784-9.409c-1.241-2.583-4.312-4.048-7.112-4.052-8.892-.011-10.023,11.737-15.683,16.269-1.73,1.385-3.663,2.513-5.3,4.006-6.043,5.514-3.321,15.721,2.228,20.556,3.851,3.355,9.9,5.261,14.649,2.638a14.924,14.924,0,0,0,5.7-6.138c1.9-3.539,3.127-7.621,4.48-11.392a42.521,42.521,0,0,0,2.824-12.478" transform="translate(-546.842 -786.329)" fill="#13375b"/>
        <path id="Path_61880" data-name="Path 61880" d="M801.69,1125.814s-6.641-6.809-8.35-9.768,1.164-1.032,4.1-1.811c1.111-.295.83-6.806,2.93-4.69a96.6,96.6,0,0,1,7.779,9.544Z" transform="translate(-692.371 -968.59)" fill="#96d9c9"/>
        <path id="Path_61881" data-name="Path 61881" d="M719.557,1086.781s-5.96-1.176-8.68,1.1.583,22.474.58,25.823-1.867,12.811-1.867,12.811,18.063,3.162,20.933-1.866c0,0,.816-19.154.695-21.562s-2.8-12.259-3.54-13.314-8.12-2.987-8.12-2.987" transform="translate(-619.68 -948.813)" fill="#50bfa5"/>
        <path id="Path_61882" data-name="Path 61882" d="M772.631,1015.193s-.031.178-.088.481c-.27,1.455-1.311,6.28-2.014,7.607-.85,1.6,2.909,6.716,6.527,6.092,1.077-.186-.91-4.7-.815-5.176.183-.915.431-2.163.685-3.443l.424-2.142c.387-1.955.7-3.554.7-3.554Z" transform="translate(-672.792 -886.444)" fill="#f7a491"/>
        <path id="Path_61883" data-name="Path 61883" d="M786.133,1015.674c.056-.3.088-.481.088-.481l5.422-.135s-.316,1.6-.7,3.554c-.135.684-.279,1.412-.422,2.13a5.083,5.083,0,0,1-2.589-1.3,6.825,6.825,0,0,1-1.961-2.91c.067-.342.123-.637.165-.863" transform="translate(-686.381 -886.444)" fill="#f47458"/>
        <path id="Path_61884" data-name="Path 61884" d="M775.792,918.956a4.893,4.893,0,0,0-4.157,1.773c-1.6,2.068-3.328,8.461.651,11.938s7.911-.459,8.494-4.631.809-9.231-4.987-9.08" transform="translate(-672.304 -802.506)" fill="#f7a491"/>
        <path id="Path_61885" data-name="Path 61885" d="M850.381,974.52c-.475.921-1.272,1.432-1.781,1.14s-.536-1.276-.061-2.2,1.272-1.432,1.781-1.14.536,1.276.061,2.2" transform="translate(-740.728 -849.051)" fill="#f7a491"/>
        <path id="Path_61886" data-name="Path 61886" d="M759.606,913.216s-3.414,6.08-5.856,6.361-2.763,3.512-2.763,3.512.873-7.445,3.291-8.881a9,9,0,0,1,5.328-.993" transform="translate(-655.832 -797.45)" fill="#13375b"/>
        <path id="Path_61887" data-name="Path 61887" d="M760.239,964.1c.2,1.08-.2,2.07-.892,2.212s-1.413-.619-1.612-1.7.2-2.07.892-2.212,1.413.619,1.612,1.7" transform="translate(-661.681 -840.445)" fill="#f7a491"/>
        <path id="Path_61888" data-name="Path 61888" d="M876.222,1738.057s-5.483,6.574-5.519,7.146.218,6.815.87,7.388,2.568.978,1.952,1.621c-.466.486-4.046.382-6.419.252-.693-.038-1.562-5.566-1.836-6.378-.4-1.18-1.368-3.838-1.005-4.66a6.912,6.912,0,0,1,2.211-1.993c1.252-.808,6.039-7.47,6.039-7.47Z" transform="translate(-754.687 -1514.259)" fill="#f48c7f"/>
        <path id="Path_61889" data-name="Path 61889" d="M861.072,1792.612s3.682,10.366,5.123,10.867c.383.133,2.219.47,2.565,1.282a3.511,3.511,0,0,1,0,1.062h-7.674s-.97-4.567-1.354-6.574c0,0-2.031-4.9-1.806-5.349s3.146-1.287,3.146-1.287" transform="translate(-749.206 -1565.477)" fill="#f7cc7f"/>
        <path id="Path_61890" data-name="Path 61890" d="M1218.388,1769.429s4.477,6.3,4.084,8.3c-.211,1.068-1.15,2.465-.611,3.47a2.7,2.7,0,0,0,1.155,1.256l13.967.224c.761.012.258-.476-.355-.926a28.187,28.187,0,0,0-5.022-2.772c-.209-.1-.971-.584-1.245-.752a9.662,9.662,0,0,1-2-1.761c-1-1.114-5.413-10.195-5.413-10.195Z" transform="translate(-1064.01 -1542.474)" fill="#f7a491"/>
        <path id="Path_61891" data-name="Path 61891" d="M1253.11,1858.474a12.665,12.665,0,0,1-7.952-.312c-.394,1.114-.916,2.512-.639,3.318.339.987.822,1.21,1.248,1.221,3.374.089,12.359.209,14.932.242a.419.419,0,0,0,.326-.689c-.638-.76-7.64-3.612-7.916-3.78" transform="translate(-1086.763 -1622.721)" fill="#f7cc7f"/>
        <path id="Path_61892" data-name="Path 61892" d="M770.734,1399.287s-5.544,6.328-6.958,7.33-14.985,25.992-14.985,25.992l4.835,3.53s12.129-15.123,17.825-23.212c4.816-6.839,3.042-6.406,5.874-10.569a5.562,5.562,0,0,0-.85-7.251q-.383-.347-.836-.725c-4.192-3.494-32.929-7.426-32.929-7.426l-18.38,1.8s15.017,10.531,15.578,10.811,20.738,3.223,21.158,3.223,9.668-3.5,9.668-3.5" transform="translate(-632.552 -1211.22)" fill="#13375b"/>
        <path id="Path_61893" data-name="Path 61893" d="M702.5,1397.716s-3.153,9.458,1.576,13.872,32.824,3.923,42.072,3.923c0,0,3.783,10.369,4.2,12.051s18.776,23.4,18.776,23.4l5.044-3.223s-19.757-38.394-21.3-40.075-23.541-8.407-29.005-9.949-21.369,0-21.369,0" transform="translate(-612.586 -1220.018)" fill="#355389"/>
        <path id="Path_61894" data-name="Path 61894" d="M809.712,1008.146l-3.405-.254a1.493,1.493,0,0,0,1.476,1.454c1.822.189,1.929-1.2,1.929-1.2" transform="translate(-704.143 -880.186)" fill="#fff"/>
        <path id="Path_61895" data-name="Path 61895" d="M776.23,1182.414c.2-.593-2.678-1.062-2.834-1.66s3.636-.659,3.77-1.186c.247-.971-4.156-.19-4.071-.644s4.586-1.483,4.1-2.26-4.556,1.554-4.681,1.026,3.976-1.827,3.9-2.985c-.042-.619-6.728,3.11-7.506,2.776s.825-3.248.2-3.677-2.373,5.92-2.8,6.133-9.459,5.41-12.676,6.243c-.395-1.077-3.225-6.786-3.574-7.805-1.8,1.292-3.9,1.58-5.758,2.759,1.363,3.381,6.034,11.7,6.977,12.123,2.871,1.285,13.923-7.947,16.13-9.528s3.478-1.076,4.974-1.579,3.645.857,3.85.264" transform="translate(-649.992 -1025.058)" fill="#f7a491"/>
        <path id="Path_61896" data-name="Path 61896" d="M705.893,1105.51s-3.911-8.67-4.5-12.035,2.293-7.589,5.316-7.316,7.557,15.242,7.557,15.242Z" transform="translate(-612.449 -948.525)" fill="#96d9c9"/>
        <rect id="Rectangle_5587" data-name="Rectangle 5587" width="91.256" height="79.612" transform="translate(154.549 160.668)" fill="#44a088"/>
        <rect id="Rectangle_5588" data-name="Rectangle 5588" width="52.552" height="78.481" transform="translate(245.73 161.883)" fill="#96d9c9"/>
        <g id="Group_15921" data-name="Group 15921" transform="translate(154.407 161.883)" opacity="0.5" style="mix-blend-mode: multiply;isolation: isolate">
          <g id="Group_15920" data-name="Group 15920">
            <g id="Group_15919" data-name="Group 15919" clip-path="url(#clip-path-2)">
              <rect id="Rectangle_5589" data-name="Rectangle 5589" width="143.875" height="14.414" transform="translate(0)" fill="#50bfa5"/>
            </g>
          </g>
        </g>
        <g id="Group_15924" data-name="Group 15924" transform="translate(240.676 161.883)" opacity="0.5" style="mix-blend-mode: multiply;isolation: isolate">
          <g id="Group_15923" data-name="Group 15923">
            <g id="Group_15922" data-name="Group 15922" clip-path="url(#clip-path-3)">
              <rect id="Rectangle_5591" data-name="Rectangle 5591" width="5.053" height="78.481" transform="translate(0)" fill="#50bfa5"/>
            </g>
          </g>
        </g>
        <rect id="Rectangle_5593" data-name="Rectangle 5593" width="156.097" height="2.43" transform="translate(148.127 159.453)" fill="#355389"/>
        <path id="Path_61897" data-name="Path 61897" d="M2160.136,1445.8h.419a24.653,24.653,0,0,1,.892-4.6c1.826-6.162,1.027-6.96,4.108-10.812s3.31-11.84,3.31-11.84,1.484-9.072,0-13.066-1.6-7.988-5.192-12.21a59.667,59.667,0,0,1-1.541,8.216c-.856,2.568-1.668,5.021-1.034,11.183s1.029,6.676,1.174,8.273-.083,8.332.26,9.444-2,8.815-2.168,12.124c-.052.994-.144,2.128-.227,3.284" transform="translate(-1886.433 -1216.734)" fill="#215e4b"/>
        <path id="Path_61898" data-name="Path 61898" d="M2166.581,1639.671a6.678,6.678,0,0,1,3.473-3.552c4.793-2.14,8.026-2.092,10.251-7.227s2.226-12.153,3-13.609c0,0-2.054-.342-4.108,3.338s-3.447,6.419-4.634,8.559-2.9,1.541-4.353,3.167c-1.219,1.363-2.345,4.533-2.773,6.142a6.328,6.328,0,0,1-.608,1.5c-.242.428-.528.949-.7,1.32a2.1,2.1,0,0,0-.113.366Z" transform="translate(-1891.566 -1410.609)" fill="#3c8f7c"/>
        <path id="Path_61899" data-name="Path 61899" d="M2062.7,1380.952c-.342,4.394,2.454,4.051,2.568,6.847s3.766,7.532,5.458,10.9a18.149,18.149,0,0,1,1.314,6.594h1.359c-.526-5.482-2.75-9.3-4.08-12.357-1.712-3.937-1.969-5.734-.514-8.816s-.685-11.041,1.387-14.589,1.01-9.118.533-11.258.049-3.595.477-5.85a15.24,15.24,0,0,0-.477-5.533c-.077,2.8-2.205,6.619-3.746,9.072s-4.451,9.129-4.108,12.153.171,3.252.171,3.252c-1.084,4.051,0,5.192-.343,9.586" transform="translate(-1801.208 -1176.229)" fill="#215e4b"/>
        <path id="Path_61900" data-name="Path 61900" d="M2037.078,1636.1c.175.525.735,1.864,1.248,3.57h.833c-.379-2.172-1.033-4.693-2.139-6.138-2.225-2.91-6.676-4.165-7.189-6.276s.057-8.445-3.2-11.982c0,0,.456,3.939,0,4.993s-4.336,5.962-2.054,10.07,7.417,3.595,9.015,4.508,3.2.4,3.48,1.255" transform="translate(-1767.432 -1410.61)" fill="#3c8f7c"/>
        <path id="Path_61901" data-name="Path 61901" d="M2097.133,1512.129c-.057,4.222,3.253,5.82,3.2,8.159a20.777,20.777,0,0,0,1.312,6.733c.4,1.192.177,4.51.107,7.625h.918a61.735,61.735,0,0,0,.4-7.054c-.114-2,.8-3.595.913-7.075s.856-6.619-.685-11.012-1.255-9.643-7.7-14.493c0,0-1.141,5.135-.285,7.931s1.883,4.964,1.826,9.186" transform="translate(-1829.54 -1305.584)" fill="#3c8f7c"/>
        <path id="Path_61902" data-name="Path 61902" d="M2097.133,1512.129c-.057,4.222,3.253,5.82,3.2,8.159a20.777,20.777,0,0,0,1.312,6.733c.4,1.192.177,4.51.107,7.625h.381c.052-.651.1-1.059.1-1.059l.19-7.874s-.38-6.162-1.065-11.183-5.763-19.518-5.763-19.518-1.141,5.135-.285,7.931,1.883,4.964,1.826,9.186" transform="translate(-1829.54 -1305.584)" fill="#327f6b"/>
        <path id="Path_61903" data-name="Path 61903" d="M2096.1,1779.38h-8.837a.937.937,0,0,0-.91,1.155l3.222,13.585a.936.936,0,0,0,.91.721H2101.1a.937.937,0,0,0,.91-.721l3.221-13.585a.937.937,0,0,0-.91-1.155Z" transform="translate(-1821.976 -1553.921)" fill="#f47458"/>
        <path id="Path_61904" data-name="Path 61904" d="M1384.574,973.376a2.845,2.845,0,1,0,2.844-2.845,2.844,2.844,0,0,0-2.844,2.845" transform="translate(-1209.14 -847.559)" fill="#f7cc7f"/>
        <path id="Path_61905" data-name="Path 61905" d="M1343.529,1223.384h.749a.15.15,0,0,0,.15-.15v-3.065a.15.15,0,0,0-.15-.15h-.749a.149.149,0,0,0-.15.15v3.065a.15.15,0,0,0,.15.15" transform="translate(-1173.164 -1065.435)" fill="#b75742"/>
        <path id="Path_61906" data-name="Path 61906" d="M1298.675,920.871a4.269,4.269,0,0,1,2.922-1.885,4.33,4.33,0,0,1,2.956.993l.653-.736a5.308,5.308,0,0,0-3.7-1.237,5.2,5.2,0,0,0-3.608,2.267Z" transform="translate(-1133.442 -801.673)" fill="#50bfa5"/>
        <path id="Path_61907" data-name="Path 61907" d="M1343.736,919.532l4.481,4.481a.527.527,0,0,1,0,.746l-1.868,1.867a.528.528,0,0,1-.746,0l-4.481-4.482a.527.527,0,0,1,0-.746l1.867-1.867a.528.528,0,0,1,.746,0" transform="translate(-1171.058 -802.887)" fill="#b75742"/>
        <path id="Path_61908" data-name="Path 61908" d="M1362.324,938.719l-9.563,9.563a6.762,6.762,0,1,1,9.563-9.563" transform="translate(-1179.629 -818.048)" fill="#f47458"/>
        <path id="Path_61909" data-name="Path 61909" d="M1213.994,949.893l9.59-19.535,2.993,1.469-9.589,19.534Zm10.059-18.161-8.685,17.692,1.15.565L1225.2,932.3Z" transform="translate(-1060.173 -812.476)" fill="#b75742"/>
        <path id="Path_61910" data-name="Path 61910" d="M1208.764,1086.9l3.155-1.077,7.032,20.594-3.155,1.078Zm2.516.226-1.213.414,6.369,18.651,1.213-.414Z" transform="translate(-1055.606 -948.242)" fill="#b75742"/>
        <path id="Path_61911" data-name="Path 61911" d="M1362.083,958.834l.521.521a.147.147,0,0,0,.208,0l10.584-10.584a.147.147,0,0,0,0-.208l-.521-.521a.147.147,0,0,0-.208,0l-10.584,10.584a.147.147,0,0,0,0,.208" transform="translate(-1189.461 -827.881)" fill="#96d9c9"/>
        <path id="Path_61912" data-name="Path 61912" d="M1205.283,1076.293a2.431,2.431,0,1,0,2.431-2.431,2.431,2.431,0,0,0-2.431,2.431" transform="translate(-1052.566 -937.797)" fill="#f47458"/>
        <path id="Path_61913" data-name="Path 61913" d="M1248.5,1232.688h-20.709a.951.951,0,0,0-.951.951v2.38h22.61v-2.38a.951.951,0,0,0-.951-.951" transform="translate(-1071.393 -1076.499)" fill="#50bfa5"/>
        <path id="Path_61914" data-name="Path 61914" d="M1091.376,427.036a17.739,17.739,0,1,1-17.739-17.726,17.732,17.732,0,0,1,17.739,17.726" transform="translate(-922.108 -357.448)" fill="#355389"/>
        <path id="Path_61915" data-name="Path 61915" d="M1103.794,440.609A15.626,15.626,0,1,1,1087.22,426a15.618,15.618,0,0,1,16.574,14.605" transform="translate(-936.671 -371.999)" fill="#fff"/>
        <rect id="Rectangle_5594" data-name="Rectangle 5594" width="4.82" height="0.37" transform="translate(137.468 69.337)" fill="#c5ddf9"/>
        <rect id="Rectangle_5595" data-name="Rectangle 5595" width="4.82" height="0.37" transform="translate(160.801 69.337)" fill="#c5ddf9"/>
        <rect id="Rectangle_5596" data-name="Rectangle 5596" width="0.37" height="4.816" transform="translate(151.324 55.641)" fill="#c5ddf9"/>
        <rect id="Rectangle_5597" data-name="Rectangle 5597" width="0.37" height="4.816" transform="translate(151.324 78.864)" fill="#c5ddf9"/>
        <path id="Path_61916" data-name="Path 61916" d="M1193.336,546.206a.435.435,0,1,1-.436-.435.435.435,0,0,1,.436.435" transform="translate(-1041.372 -476.618)" fill="#b0c1ec"/>
        <path id="Path_61917" data-name="Path 61917" d="M1140.634,494.176a.193.193,0,0,1-.138-.057l-7.824-7.818a.195.195,0,0,1,.275-.275l7.824,7.818a.195.195,0,0,1-.138.332" transform="translate(-989.106 -424.393)" fill="#b0c1ec"/>
        <path id="Path_61918" data-name="Path 61918" d="M1197.788,557.106a.142.142,0,0,1-.071-.082l-2.529-7.633a.142.142,0,0,1,.269-.089l2.529,7.633a.142.142,0,0,1-.2.171" transform="translate(-1043.744 -479.617)" fill="#b0c1ec"/>
        <rect id="Rectangle_5598" data-name="Rectangle 5598" width="317.884" height="0.76" transform="translate(19.426 240.539)" fill="#13375b"/>
      </g>
    </g>
    <rect id="Rectangle_5600" data-name="Rectangle 5600" width="359.691" height="253.413" transform="translate(-18116 6159.086)" fill="none"/>
  </g>
</svg>
